<svg xmlns="http://www.w3.org/2000/svg" viewBox="0 0 186.82 121.07"><defs><style>.cls-1{fill:#1d1d1b;}</style></defs><g id="Слой_2" data-name="Слой 2"><g id="Слой_1-2" data-name="Слой 1"><path class="cls-1" d="M177.33,121.07H9.48A9.5,9.5,0,0,1,0,111.58V9.49A9.5,9.5,0,0,1,9.48,0H177.33a9.5,9.5,0,0,1,9.49,9.49V111.58A9.5,9.5,0,0,1,177.33,121.07ZM9.48,6.76A2.73,2.73,0,0,0,6.76,9.49V111.58a2.72,2.72,0,0,0,2.72,2.72H177.33a2.73,2.73,0,0,0,2.73-2.72V9.49a2.74,2.74,0,0,0-2.73-2.73Z"/><circle cx="49.78" cy="25.05" r="3.37"/><circle cx="49.78" cy="96.36" r="3.37"/><circle cx="137.44" cy="96.36" r="3.37"/><circle cx="137.44" cy="25.05" r="3.37"/><path d="M138.57,77.94h-2.26V75.69h2.26Zm0-4.51h-2.26V71.18h2.26Zm0-4.51h-2.26V66.67h2.26Zm0-4.5h-2.26V62.16h2.26Zm0,27h-2.26V89.21h2.26Zm0-4.5h-2.26V84.7h2.26Zm0-4.51h-2.26V80.2h2.26Zm0-4.51h-2.26V75.69h2.26Zm0-18h-2.26V57.65h2.26Zm0,0h-2.26V57.65h2.26Zm0-4.51h-2.26V53.15h2.26Zm0,0h-2.26V53.15h2.26Zm0,4.51h-2.26V57.65h2.26Zm0-4.51h-2.26V53.15h2.26Zm0,0h-2.26V53.15h2.26Zm0,4.51h-2.26V57.65h2.26Zm0-4.51h-2.26V53.15h2.26Zm0,0h-2.26V53.14h2.26Zm0,0h-2.26V53.15h2.26Zm0,0h-2.26V53.14h2.26Zm0-4.51h-2.26V48.63h2.26Zm0-4.51h-2.26V44.13h2.26Zm0,0h-2.26V44.13h2.26Zm0,0h-2.26V44.13h2.26Zm0,0h-2.26V44.13h2.26Zm0,0h-2.26V44.13h2.26Zm0,0h-2.26V44.13h2.26Zm0,0h-2.26V44.13h2.26Zm0,0h-2.26V44.13h2.26Zm0,0h-2.26V44.13h2.26Zm0-4.51h-2.26V39.62h2.26Zm0-4.5h-2.26V35.11h2.26Zm0,0h-2.26V35.11h2.26Zm0-4.51h-2.26V30.61h2.26Z"/><path d="M50.9,77.94H48.65V75.69H50.9Zm0-4.51H48.65V71.18H50.9Zm0-4.51H48.65V66.67H50.9Zm0-4.5H48.65V62.16H50.9Zm0,27H48.65V89.21H50.9Zm0-4.5H48.65V84.7H50.9Zm0-4.51H48.65V80.2H50.9Zm0-4.51H48.65V75.69H50.9Zm0-18H48.65V57.65H50.9Zm0,0H48.65V57.65H50.9Zm0-4.51H48.65V53.15H50.9Zm0,0H48.65V53.15H50.9Zm0,4.51H48.65V57.65H50.9Zm0-4.51H48.65V53.15H50.9Zm0,0H48.65V53.15H50.9Zm0,4.51H48.65V57.65H50.9Zm0-4.51H48.65V53.15H50.9Zm0,0H48.65V53.14H50.9Zm0,0H48.65V53.15H50.9Zm0,0H48.65V53.14H50.9Zm0-4.51H48.65V48.63H50.9Zm0-4.51H48.65V44.13H50.9Zm0,0H48.65V44.13H50.9Zm0,0H48.65V44.13H50.9Zm0,0H48.65V44.13H50.9Zm0,0H48.65V44.13H50.9Zm0,0H48.65V44.13H50.9Zm0,0H48.65V44.13H50.9Zm0,0H48.65V44.13H50.9Zm0,0H48.65V44.13H50.9Zm0-4.51H48.65V39.62H50.9Zm0-4.5H48.65V35.11H50.9Zm0,0H48.65V35.11H50.9Zm0-4.51H48.65V30.61H50.9Z"/><path d="M65.79,26.18V23.92h2.26v2.26Zm4.51,0V23.92h2.26v2.26Zm4.51,0V23.92h2.25v2.26Zm4.51,0V23.92h2.25v2.26Zm-22.54,0V23.92H59v2.26Zm4.51,0V23.92h2.25v2.26Zm4.51,0V23.92h2.25v2.26Zm4.5,0V23.92h2.26v2.26Zm13.53,0V23.92h2.25v2.26Zm0,0V23.92h2.25v2.26Zm4.51,0V23.92h2.25v2.26Zm0,0V23.92h2.25v2.26Zm-4.51,0V23.92h2.25v2.26Zm4.51,0V23.92h2.25v2.26Zm0,0V23.92h2.25v2.26Zm-4.51,0V23.92h2.25v2.26Zm4.51,0V23.92h2.25v2.26Zm0,0V23.92h2.25v2.26Zm0,0V23.92h2.25v2.26Zm0,0V23.92h2.25v2.26Zm0,0V23.92h2.25v2.26Zm4.5,0V23.92h2.25v2.26Zm4.51,0V23.92H99.6v2.26Zm0,0V23.92H99.6v2.26Zm4.51,0V23.92h2.25v2.26Zm0,0V23.92h2.25v2.26Zm-4.51,0V23.92H99.6v2.26Zm4.51,0V23.92h2.25v2.26Zm0,0V23.92h2.25v2.26Zm-4.51,0V23.92H99.6v2.26Zm4.51,0V23.92h2.25v2.26Zm0,0V23.92h2.26v2.26Zm0,0V23.92h2.25v2.26Zm0,0V23.92h2.26v2.26Zm0,0V23.92h2.25v2.26Zm0,0V23.92h2.25v2.26Zm4.51,0V23.92h2.25v2.26Zm0,0V23.92h2.25v2.26Zm-4.51,0V23.92h2.25v2.26Zm4.51,0V23.92h2.25v2.26Zm0,0V23.92h2.25v2.26Zm-4.51,0V23.92h2.25v2.26Zm4.51,0V23.92h2.25v2.26Zm0,0V23.92h2.26v2.26Zm0,0V23.92h2.25v2.26Zm0,0V23.92h2.26v2.26Zm0,0V23.92h2.25v2.26Zm0,0V23.92h2.25v2.26Zm0,0V23.92h2.25v2.26Zm0,0V23.92h2.25v2.26Zm0,0V23.92h2.25v2.26Zm0,0V23.92h2.26v2.26Zm0,0V23.92h2.25v2.26Zm0,0V23.92h2.26v2.26Zm0,0V23.92h2.25v2.26Zm0,0V23.92h2.25v2.26Zm4.51,0V23.92h2.25v2.26Zm0,0V23.92h2.25v2.26Zm-4.51,0V23.92h2.25v2.26Zm4.51,0V23.92h2.25v2.26Zm0,0V23.92h2.25v2.26Zm-4.51,0V23.92h2.25v2.26Zm4.51,0V23.92h2.25v2.26Zm0,0V23.92h2.26v2.26Zm0,0V23.92h2.25v2.26Zm0,0V23.92h2.26v2.26Zm4.5,0V23.92h2.26v2.26Zm0,0V23.92h2.26v2.26Zm0,0V23.92h2.26v2.26Zm0,0V23.92h2.26v2.26Zm0,0V23.92h2.25v2.26Zm0,0V23.92h2.26v2.26Zm0,0V23.92h2.25v2.26Zm0,0V23.92h2.26v2.26Zm0,0V23.92h2.25v2.26Zm0,0V23.92h2.26v2.26Zm0,0V23.92h2.26v2.26Zm4.51,0V23.92h2.25v2.26Zm0,0V23.92h2.25v2.26Zm-4.51,0V23.92h2.26v2.26Zm4.51,0V23.92h2.25v2.26Zm0,0V23.92h2.25v2.26Zm-4.51,0V23.92h2.26v2.26Zm4.51,0V23.92h2.25v2.26Zm0,0V23.92h2.26v2.26Zm0,0V23.92h2.25v2.26Zm0,0V23.92h2.26v2.26Zm0,0V23.92h2.25v2.26Zm0,0V23.92h2.25v2.26Zm0,0V23.92h2.25v2.26Zm0,0V23.92h2.25v2.26Zm0,0V23.92h2.25v2.26Zm0,0V23.92h2.26v2.26Zm0,0V23.92h2.25v2.26Zm0,0V23.92h2.26v2.26Zm0,0V23.92h2.25v2.26Zm0,0V23.92h2.25v2.26Zm4.51,0V23.92h2.25v2.26Zm0,0V23.92h2.25v2.26Zm-4.51,0V23.92h2.25v2.26Zm4.51,0V23.92h2.25v2.26Zm0,0V23.92h2.25v2.26Zm-4.51,0V23.92h2.25v2.26Zm4.51,0V23.92h2.25v2.26Zm0,0V23.92h2.26v2.26Zm0,0V23.92h2.25v2.26Zm0,0V23.92h2.26v2.26Zm4.5,0V23.92h2.26v2.26Z"/><path d="M65.79,97.48V95.23h2.26v2.25Zm4.51,0V95.23h2.26v2.25Zm4.51,0V95.23h2.25v2.25Zm4.51,0V95.23h2.25v2.25Zm-22.54,0V95.23H59v2.25Zm4.51,0V95.23h2.25v2.25Zm4.51,0V95.23h2.25v2.25Zm4.5,0V95.23h2.26v2.25Zm13.53,0V95.23h2.25v2.25Zm0,0V95.23h2.25v2.25Zm4.51,0V95.23h2.25v2.25Zm0,0V95.23h2.25v2.25Zm-4.51,0V95.23h2.25v2.25Zm4.51,0V95.23h2.25v2.25Zm0,0V95.23h2.25v2.25Zm-4.51,0V95.23h2.25v2.25Zm4.51,0V95.23h2.25v2.25Zm0,0V95.23h2.25v2.25Zm0,0V95.23h2.25v2.25Zm0,0V95.23h2.25v2.25Zm0,0V95.23h2.25v2.25Zm4.5,0V95.23h2.25v2.25Zm4.51,0V95.23H99.6v2.25Zm0,0V95.23H99.6v2.25Zm4.51,0V95.23h2.25v2.25Zm0,0V95.23h2.25v2.25Zm-4.51,0V95.23H99.6v2.25Zm4.51,0V95.23h2.25v2.25Zm0,0V95.23h2.25v2.25Zm-4.51,0V95.23H99.6v2.25Zm4.51,0V95.23h2.25v2.25Zm0,0V95.23h2.26v2.25Zm0,0V95.23h2.25v2.25Zm0,0V95.23h2.26v2.25Zm0,0V95.23h2.25v2.25Zm0,0V95.23h2.25v2.25Zm4.51,0V95.23h2.25v2.25Zm0,0V95.23h2.25v2.25Zm-4.51,0V95.23h2.25v2.25Zm4.51,0V95.23h2.25v2.25Zm0,0V95.23h2.25v2.25Zm-4.51,0V95.23h2.25v2.25Zm4.51,0V95.23h2.25v2.25Zm0,0V95.23h2.26v2.25Zm0,0V95.23h2.25v2.25Zm0,0V95.23h2.26v2.25Zm0,0V95.23h2.25v2.25Zm0,0V95.23h2.25v2.25Zm0,0V95.23h2.25v2.25Zm0,0V95.23h2.25v2.25Zm0,0V95.23h2.25v2.25Zm0,0V95.23h2.26v2.25Zm0,0V95.23h2.25v2.25Zm0,0V95.23h2.26v2.25Zm0,0V95.23h2.25v2.25Zm0,0V95.23h2.25v2.25Zm4.51,0V95.23h2.25v2.25Zm0,0V95.23h2.25v2.25Zm-4.51,0V95.23h2.25v2.25Zm4.51,0V95.23h2.25v2.25Zm0,0V95.23h2.25v2.25Zm-4.51,0V95.23h2.25v2.25Zm4.51,0V95.23h2.25v2.25Zm0,0V95.23h2.26v2.25Zm0,0V95.23h2.25v2.25Zm0,0V95.23h2.26v2.25Zm4.5,0V95.23h2.26v2.25Zm0,0V95.23h2.26v2.25Zm0,0V95.23h2.26v2.25Zm0,0V95.23h2.26v2.25Zm0,0V95.23h2.25v2.25Zm0,0V95.23h2.26v2.25Zm0,0V95.23h2.25v2.25Zm0,0V95.23h2.26v2.25Zm0,0V95.23h2.25v2.25Zm0,0V95.23h2.26v2.25Zm0,0V95.23h2.26v2.25Zm4.51,0V95.23h2.25v2.25Zm0,0V95.23h2.25v2.25Zm-4.51,0V95.23h2.26v2.25Zm4.51,0V95.23h2.25v2.25Zm0,0V95.23h2.25v2.25Zm-4.51,0V95.23h2.26v2.25Zm4.51,0V95.23h2.25v2.25Zm0,0V95.23h2.26v2.25Zm0,0V95.23h2.25v2.25Zm0,0V95.23h2.26v2.25Zm0,0V95.23h2.25v2.25Zm0,0V95.23h2.25v2.25Zm0,0V95.23h2.25v2.25Zm0,0V95.23h2.25v2.25Zm0,0V95.23h2.25v2.25Zm0,0V95.23h2.26v2.25Zm0,0V95.23h2.25v2.25Zm0,0V95.23h2.26v2.25Zm0,0V95.23h2.25v2.25Zm0,0V95.23h2.25v2.25Zm4.51,0V95.23h2.25v2.25Zm0,0V95.23h2.25v2.25Zm-4.51,0V95.23h2.25v2.25Zm4.51,0V95.23h2.25v2.25Zm0,0V95.23h2.25v2.25Zm-4.51,0V95.23h2.25v2.25Zm4.51,0V95.23h2.25v2.25Zm0,0V95.23h2.26v2.25Zm0,0V95.23h2.25v2.25Zm0,0V95.23h2.26v2.25Zm4.5,0V95.23h2.26v2.25Z"/></g></g></svg>