<svg xmlns="http://www.w3.org/2000/svg" viewBox="0 0 115.92 123.68"><defs><style>.cls-1{font-size:47.92px;fill:none;font-family:Gilroy-Bold, Gilroy Bold;font-weight:700;}</style></defs><g id="Слой_2" data-name="Слой 2"><g id="Слой_1-2" data-name="Слой 1"><path d="M109.05,123.68H6.87A6.88,6.88,0,0,1,0,116.8V38a6.88,6.88,0,0,1,6.87-6.88H38.38l.11-6.81L28,24.15a6.89,6.89,0,0,1-6.88-6.88V6.87A6.88,6.88,0,0,1,28,0H88a6.88,6.88,0,0,1,6.87,6.87v10.4A6.88,6.88,0,0,1,88,24.15H77.54L77.43,31a.11.11,0,0,0,.11.11h31.51A6.88,6.88,0,0,1,115.92,38V116.8A6.88,6.88,0,0,1,109.05,123.68ZM6.87,37.83l-.11,79,102.29.12.11-79-31.62-.12A6.88,6.88,0,0,1,70.67,31v-6.7a6.88,6.88,0,0,1,6.87-6.87H88l.11-10.52-14-.11H28l-.12,10.51,10.52.12a6.88,6.88,0,0,1,6.87,6.87V31a6.88,6.88,0,0,1-6.87,6.87Z"/><text class="cls-1" transform="translate(37.71 89.04)">кг</text></g></g></svg>