<svg xmlns="http://www.w3.org/2000/svg" viewBox="0 0 179.87 159.86"><g id="Слой_2" data-name="Слой 2"><g id="Слой_1-2" data-name="Слой 1"><path d="M91.77,90.16h-.11c-15.41,0-29.92-6-38.81-16l1.66-1.48C63,82.22,76.87,87.91,91.66,87.93h.11c14.8,0,28.26-5.54,37-15.21l1.66,1.49C121.27,84.35,107.2,90.16,91.77,90.16Z"/><polygon points="51.75 76.29 50.72 69.72 56.93 72.12 51.75 76.29"/><polygon points="131.46 76.28 132.56 69.71 126.33 72.04 131.46 76.28"/><path d="M24.3,159.86A8.92,8.92,0,0,1,15.42,151V49.86a8.87,8.87,0,0,1,6.25-8.5L152.53.41a8.91,8.91,0,0,1,11.56,8.5V110a8.87,8.87,0,0,1-6.25,8.5L27,159.45A9.18,9.18,0,0,1,24.3,159.86ZM155.19,6.68a2.24,2.24,0,0,0-.67.11l-130.86,41a2.21,2.21,0,0,0-1.56,2.12V151A2.23,2.23,0,0,0,25,153.07l130.86-40.95a2.21,2.21,0,0,0,1.56-2.12V8.91a2.25,2.25,0,0,0-2.22-2.23Z"/><path d="M5.93,137.4l.37-2.19a5.14,5.14,0,0,0,.88.08H8.33v2.22H7.18A7.18,7.18,0,0,1,5.93,137.4Zm-2.46-.92a7.16,7.16,0,0,1-1.94-1.74l1.75-1.36a5.16,5.16,0,0,0,1.35,1.2Zm7.08,1v-2.22h2.23v2.22Zm4.45,0v-2.22h2.22v2.22ZM.33,132.4a7.2,7.2,0,0,1-.29-2v-.49H2.26v.49a5,5,0,0,0,.2,1.4ZM0,127.67v-2.23H2.26v2.22Zm0-4.45V121H2.26v2.23Zm0-4.44v-2.22H2.26v2.22Zm0-4.44v-2.22H2.26v2.22Zm99.39,23.14v-2.23h2.22v2.23ZM0,109.9v-2.22H2.25v2.22Zm103.84,27.57v-2.22h2.22v2.22Zm4.44,0v-2.22h2.22v2.22Zm4.44,0v-2.22H115v2.22ZM0,105.45v-2.22H2.25v2.22Zm117.17,32v-2.22h2.22v2.23Zm4.44,0v-2.23h2.22v2.22Zm4.45,0v-2.23h2.23v2.22Zm4.44,0v-2.22h2.22v2.22ZM0,101V98.78H2.25V101ZM135,137.46v-2.22h2.22v2.22Zm4.44,0v-2.22h2.22v2.22Zm4.45,0v-2.22h2.22v2.23Zm4.44,0v-2.23h2.22v2.22ZM0,96.56V94.34H2.25v2.23Zm152.72,40.9v-2.23H155v2.22Zm4.44,0v-2.22h2.22v2.22Zm4.44,0v-2.22h2.22v2.22ZM0,92.12V89.9H2.25v2.22Zm166,45.33v-2.22h2.22v2.22Zm4.45,0v-2.22h2.22a5.17,5.17,0,0,0,1.31-.17l.58,2.14a7.41,7.41,0,0,1-1.88.26ZM0,87.67V85.45H2.25v2.22Zm177,48.38-1.32-1.78a5,5,0,0,0,1.23-1.33l1.88,1.19A7.13,7.13,0,0,1,177,136.05ZM0,83.23V81H2.24v2.22Zm177.54,48a5,5,0,0,0,.09-1v-1h2.22v1a7.12,7.12,0,0,1-.13,1.39ZM0,78.79V76.56H2.24v2.22Zm177.63,48.26v-2.22h2.22v2.22ZM0,74.34V72.12H2.24v2.23ZM177.64,122.6v-2.22h2.23v2.22ZM0,69.9V67.68H2.24V69.9Zm177.62,48.26v-2.22h2.23v2.22ZM0,65.46V63.24H2.24v2.22Zm177.63,48.26V111.5h2.22v2.22ZM0,61V58.79H2.23V61Zm177.63,48.27v-2.23h2.22v2.23ZM0,56.57V54.35H2.23v2.22Zm177.63,48.26v-2.22h2.22v2.22ZM0,52.13V49.9H2.23v2.22Zm177.63,48.26V98.17h2.22v2.22ZM0,47.68V45.46H2.23v2.23ZM177.63,95.94V93.72h2.23V96ZM0,43.24V41H2.23v2.22ZM177.63,91.5V89.28h2.23V91.5ZM0,38.79V36.58H2.23V38.8ZM177.63,87.06V84.83h2.22v2.22ZM0,34.35V32.13H2.23v2.22ZM177.63,82.61V80.39h2.22v2.22ZM0,29.91v-.23a7,7,0,0,1,.25-1.89c0-.15.09-.29.14-.43l2.09.73-.08.29a4.74,4.74,0,0,0-.18,1.3l-1.11.23ZM177.63,78.17V76h2.22v2.22ZM3.37,26.52l-1.7-1.43a7.19,7.19,0,0,1,2-1.66l1.06,1.95A4.9,4.9,0,0,0,3.37,26.52ZM177.63,73.73V71.5h2.22v2.23ZM6.47,24.81l-.28-2.2a7.3,7.3,0,0,1,.94-.07H8.55v2.22H7.13A4.87,4.87,0,0,0,6.47,24.81Zm4.3,0V22.54H13v2.22ZM177.62,69.28V67.06h2.23v2.23ZM15.21,24.76V22.54h2.23v2.22Zm4.45,0V22.54h2.22v2.22Zm4.44,0V22.54h2.22v2.23Zm4.44,0V22.54h2.23v2.23ZM177.62,64.84V62.62h2.23v2.22ZM33,24.76V22.53h2.22v2.22Zm4.44,0V22.53h2.22v2.22Zm4.45,0V22.53H44.1v2.22Zm4.44,0V22.53h2.22v2.22Zm131.3,35.64V58.17h2.22V60.4ZM50.76,24.75V22.53H53v2.23Zm4.45,0V22.53h2.23v2.23Zm4.44,0V22.52h2.22v2.22Zm118,31.2V53.74h2.22V56ZM64.09,24.75V22.52h2.22v2.22Zm4.45,0V22.52h2.22v2.22Zm4.44,0V22.52H75.2v2.22Zm4.44,0V22.52h2.22v2.23Zm100.2,26.77V49.28h2.22v2.22ZM81.87,24.74V22.52h2.22v2.23Zm4.44,0V22.51h2.22v2.22Zm4.44,0V22.51H93v2.22Zm4.45,0V22.51h2.22v2.22Zm82.42,22.34V44.84h2.22v2.23Zm-78-22.34V22.51h2.22v2.22Zm4.45,0V22.5h2.23v2.23Zm4.44,0V22.5h2.22v2.23Zm69.09,17.89V40.4h2.23v2.22ZM113,24.72V22.5h2.22v2.22Zm4.44,0V22.5h2.23v2.22Zm4.45,0V22.5h2.22v2.22Zm4.44,0V22.5h2.22v2.22Zm51.31,13.46V36h2.22v2.22ZM130.75,24.72V22.49H133v2.23Zm4.44,0V22.49h2.22v2.23Zm4.44,0V22.49h2.22v2.22Zm4.44,0V22.49h2.22v2.22Zm33.54,9V31.52h2.22v2.22Zm-29.09-9V22.49h2.22v2.22Zm4.44,0V22.48h2.23v2.22Zm4.45,0V22.48h2.22v2.23Zm20.19,4.64a4.78,4.78,0,0,0-.42-1.75l2-.91a7,7,0,0,1,.61,2.55ZM161.85,24.7V22.48h2.22v2.23Zm4.44,0V22.48h2.22V24.7Zm4.45,0V22.48H173l0,2.22Zm5.42,1.42a5,5,0,0,0-1.49-1l.88-2a6.94,6.94,0,0,1,2.17,1.47Z"/></g></g></svg>