<svg xmlns="http://www.w3.org/2000/svg" viewBox="0 0 205.05 159.7"><g id="Слой_2" data-name="Слой 2"><g id="Слой_1-2" data-name="Слой 1"><path d="M198.17,115.48,38.53,159.36A9.36,9.36,0,0,1,27,152.82L.34,55.72a9.36,9.36,0,0,1,6.54-11.5L166.52.34A9.37,9.37,0,0,1,178,6.88L204.72,104A9.37,9.37,0,0,1,198.17,115.48ZM8.64,50.65A2.68,2.68,0,0,0,6.77,54l26.69,97.1a2.68,2.68,0,0,0,3.3,1.88l159.65-43.88a2.68,2.68,0,0,0,1.87-3.3L171.59,8.65a2.68,2.68,0,0,0-3.3-1.88Z"/><path d="M18.43,137.13l.38-2.19a5.05,5.05,0,0,0,.88.08h1.14v2.22H19.68A7.27,7.27,0,0,1,18.43,137.13ZM16,136.2a7.05,7.05,0,0,1-2-1.74l1.76-1.36a4.8,4.8,0,0,0,1.34,1.2Zm-3.14-4.08a7.2,7.2,0,0,1-.29-2v-.49h2.23v.49a4.91,4.91,0,0,0,.19,1.39Zm-.28-4.74v-2.22h2.22v2.22Zm0-4.44v-2.22h2.23V123Zm0-4.44v-2.23h2.22v2.22Zm0-4.45v-2.22H14.8v2.22Zm0-4.44v-2.22H14.8v2.22Zm108.23,27.75v-2.22H123v2.23Zm4.44,0v-2.23h2.22v2.22ZM12.58,105.16v-2.22h2.22v2.22ZM129.7,137.37v-2.22h2.22v2.23Zm4.44,0v-2.23h2.22v2.22Zm4.45,0v-2.22h2.22v2.23Zm4.44,0v-2.23h2.23v2.22ZM12.59,100.72V98.5h2.22v2.23ZM147.47,137.4v-2.23h2.22v2.23Zm4.45,0v-2.22h2.22v2.22Zm4.44,0v-2.23h2.23v2.23Zm4.44,0v-2.22H163v2.22Zm4.45,0v-2.23h2.22v2.23Zm4.44,0V135.2h2.22v2.23Zm4.44,0V135.2h2.22v2.22Zm4.45,0v-2.22h2.22v2.23Zm4.44,0v-2.22h2.23a4.74,4.74,0,0,0,1.3-.18l.58,2.15a7.41,7.41,0,0,1-1.88.25Zm6.46-1.39-1.32-1.79a4.69,4.69,0,0,0,1.23-1.32l1.88,1.2A7.08,7.08,0,0,1,189.48,136.05Zm.59-4.78a5,5,0,0,0,.09-1v-1h2.23v1a7,7,0,0,1-.13,1.38Zm.09-4.22v-2.22h2.22v2.22Zm0-4.45v-2.21h2.23v2.22Zm0-4.44v-2.22h2.22v2.23ZM12.66,43V40.73h2.22V43Zm0-4.44V36.29h2.22v2.22Zm0-4.44V31.84H14.9v2.22Zm0-4.45v-.23a7.35,7.35,0,0,1,.26-1.88c0-.15.09-.3.14-.44l2.09.74-.09.29a5.09,5.09,0,0,0-.17,1.3l-1.11.23Zm3.38-3.38-1.7-1.44a7.33,7.33,0,0,1,2-1.65l1.06,2A4.9,4.9,0,0,0,16.05,26.24Zm3.1-1.7-.28-2.21a7.42,7.42,0,0,1,.94-.06h1.42v2.22H19.81A4.89,4.89,0,0,0,19.15,24.54Zm4.3,0V22.28h2.23V24.5Zm4.45,0V22.28h2.22v2.23Zm4.44,0V22.29h2.22v2.22Zm4.44,0V22.29H39v2.23Zm4.45,0V22.3h2.22v2.22Zm4.44,0V22.3h2.22v2.23Zm4.44,0V22.31h2.22v2.22Zm4.45,0V22.31h2.22v2.23Zm4.44,0V22.32h2.22v2.22ZM190.25,60.39V58.17h2.22V60.4ZM63.44,24.55V22.32h2.22v2.23Zm4.45,0V22.33h2.22v2.23Zm4.44,0V22.33h2.23v2.23ZM190.25,56V53.74h2.23V56ZM76.78,24.56V22.34H79v2.23Zm4.44,0V22.34h2.22v2.22Zm4.44,0V22.35h2.23v2.23Zm104.6,26.93V49.29h2.22v2.22Zm0-4.44V44.84h2.22v2.22Zm0-4.45V40.4h2.22v2.22Zm0-4.44V36h2.22v2.23Zm0-4.44V31.52h2.23v2.22Zm0-4.39a4.78,4.78,0,0,0-.42-1.75l2-.91a7.22,7.22,0,0,1,.61,2.55Zm-6.86-4.66V22.47h2.23l0,2.23Zm5.42,1.43a5,5,0,0,0-1.49-1l.89-2.05a7.23,7.23,0,0,1,2.16,1.48Z"/><path d="M102.69,112.61h-.16c-.72,0-1.43,0-2.14-.07l.15-2.22c.66.05,1.32.07,2,.07Zm2.31-.1-.18-2.21c.72-.06,1.43-.13,2.14-.24l.32,2.2C106.52,112.37,105.76,112.45,105,112.51Zm-6.89-.2c-.76-.1-1.52-.23-2.27-.39l.46-2.17c.69.14,1.4.26,2.1.36Zm11.44-.46-.48-2.17c.7-.16,1.39-.33,2.08-.54l.62,2.14Q110.68,111.6,109.55,111.85Zm-15.94-.47c-.74-.21-1.47-.44-2.2-.71l.77-2.08c.66.24,1.34.45,2,.64Zm20.34-.82-.76-2.08c.66-.25,1.32-.52,2-.82l.93,2C115.38,110,114.67,110.3,114,110.56Zm-24.67-.74c-.7-.31-1.4-.64-2.08-1l1.06-2c.62.34,1.26.64,1.91.93Zm28.86-1.16-1.06-2c.63-.34,1.25-.7,1.85-1.09l1.19,1.88Q119.16,108.11,118.14,108.66Zm-32.93-1c-.64-.4-1.28-.83-1.9-1.28l1.31-1.8c.58.42,1.17.82,1.77,1.19ZM81.5,105c-.59-.5-1.16-1-1.71-1.54l1.54-1.61c.52.5,1,1,1.6,1.44Zm-3.31-3.2c-.52-.57-1-1.16-1.48-1.76l1.75-1.37c.44.56.9,1.11,1.38,1.64Zm-2.84-3.62c-.43-.64-.83-1.29-1.22-2l1.93-1.11c.36.62.73,1.22,1.14,1.81Zm-2.3-4c-.33-.69-.64-1.4-.93-2.1l2.06-.83c.27.66.56,1.31.87,2ZM71.34,89.9c-.23-.73-.44-1.47-.62-2.21l2.15-.54c.18.7.37,1.39.59,2.07Zm63.09-2.58-2.17-.5.2-.94,2.18.44ZM70.25,85.44c-.13-.76-.24-1.51-.32-2.28l2.22-.23c.07.72.17,1.43.29,2.14ZM135,84.05l-2.2-.28c.09-.71.16-1.42.2-2.14l2.22.13C135.19,82.52,135.11,83.29,135,84.05ZM69.78,80.87c0-.34,0-.68,0-1s0-.86,0-1.28l2.22.07c0,.4,0,.81,0,1.21s0,.63,0,.94Zm63.28-1.38c0-.72,0-1.43-.1-2.14l2.22-.19c.06.76.09,1.53.11,2.3Zm-60.89-3L70,76.27q.14-1.15.33-2.28l2.19.4C72.35,75.09,72.25,75.8,72.17,76.51Zm60.54-1.29c-.11-.71-.24-1.41-.4-2.11l2.17-.49c.17.75.31,1.5.43,2.26ZM72.93,72.3l-2.15-.55c.19-.74.4-1.48.65-2.21l2.11.7C73.31,70.92,73.11,71.61,72.93,72.3ZM131.77,71q-.32-1-.69-2l2.08-.79c.27.72.51,1.45.74,2.18ZM74.28,68.22l-2.06-.84c.29-.71.61-1.4,1-2.1l2,1C74.84,66.92,74.55,67.56,74.28,68.22Zm56-1.19c-.29-.65-.62-1.29-1-1.91L131.22,64c.37.68.72,1.36,1,2ZM76.18,64.39l-1.91-1.13c.38-.65.8-1.3,1.23-1.94l1.84,1.26C76.93,63.17,76.55,63.78,76.18,64.39Zm52-1.11c-.38-.61-.79-1.19-1.22-1.76l1.77-1.34q.71.93,1.32,1.89ZM78.61,60.86l-1.74-1.38c.48-.6,1-1.18,1.5-1.76L80,59.23C79.52,59.76,79.05,60.31,78.61,60.86Zm47-1c-.46-.53-1-1.06-1.46-1.57l1.57-1.57c.55.55,1.07,1.11,1.57,1.69ZM81.51,57.7,80,56.08c.56-.52,1.13-1,1.72-1.52l1.42,1.72C82.57,56.73,82,57.2,81.51,57.7Zm41.05-.89c-.54-.47-1.1-.92-1.66-1.35l1.34-1.77c.61.45,1.2.94,1.78,1.44ZM84.82,55l-1.3-1.81c.63-.45,1.27-.87,1.92-1.27l1.16,1.89C86,54.15,85.4,54.55,84.82,55Zm34.32-.75c-.6-.39-1.21-.76-1.83-1.1l1.08-1.95c.66.38,1.32.77,2,1.19ZM88.48,52.73l-1-2c.69-.36,1.38-.69,2.09-1l.87,2C89.76,52.1,89.11,52.4,88.48,52.73Zm26.92-.58c-.65-.3-1.31-.58-2-.83l.8-2.08c.71.27,1.42.57,2.11.9ZM92.41,51l-.73-2.1c.72-.25,1.46-.48,2.2-.68l.58,2.14C93.77,50.58,93.09,50.8,92.41,51Zm19-.41c-.69-.2-1.38-.39-2.08-.54l.5-2.17c.74.17,1.48.36,2.21.59ZM96.54,49.9l-.43-2.18c.75-.14,1.51-.27,2.27-.36l.28,2.2C98,49.65,97.25,49.76,96.54,49.9Zm10.68-.23c-.71-.1-1.42-.19-2.14-.25l.19-2.21q1.14.09,2.28.27Zm-6.42-.31-.13-2.22c.62,0,1.24,0,1.86,0H103l-.06,2.22h-.4C102,49.31,101.37,49.33,100.8,49.36Z"/><polygon points="130.46 83.05 128.53 97.89 137.62 86 130.46 83.05"/></g></g></svg>