<svg xmlns="http://www.w3.org/2000/svg" viewBox="0 0 189.19 121.06"><g id="Слой_2" data-name="Слой 2"><g id="Слой_1-2" data-name="Слой 1"><path d="M110.65,60.5v.11c0,15.62-6.07,30.31-16.15,39.32L93,98.25c9.61-8.59,15.37-22.66,15.4-37.64V60.5c0-15-5.62-28.64-15.42-37.45l1.51-1.68C104.76,30.61,110.65,44.87,110.65,60.5Z"/><polygon points="96.6 101.05 89.94 102.08 92.37 95.8 96.6 101.05"/><polygon points="96.59 20.28 89.94 19.17 92.3 25.48 96.59 20.28"/><path d="M159.29,121.06H9.48A9.5,9.5,0,0,1,0,111.57a2.9,2.9,0,0,1,.07-.66L20.42,9.12A9.5,9.5,0,0,1,29.9,0H179.7a9.5,9.5,0,0,1,9.49,9.48,3,3,0,0,1-.07.67L168.77,111.94A9.5,9.5,0,0,1,159.29,121.06ZM6.78,111.84a2.71,2.71,0,0,0,2.7,2.45H159.29a2.72,2.72,0,0,0,2.73-2.72,3.6,3.6,0,0,1,.06-.66L182.41,9.22a2.72,2.72,0,0,0-2.71-2.46H29.9a2.72,2.72,0,0,0-2.73,2.72,3.71,3.71,0,0,1-.06.67Z"/><path d="M179.7,118.8h-.53v-2.25h.53a5,5,0,0,0,1.39-.2l.63,2.17A7.19,7.19,0,0,1,179.7,118.8Zm-2.78,0h-2.25v-2.25h2.25Zm-4.51,0h-2.25v-2.25h2.25Zm-4.51,0h-2.25v-2.25h2.25Zm-4.5,0h-2.26v-2.25h2.26Zm-4.51,0h-2.25v-2.25h2.25Zm-4.51,0h-2.25v-2.25h2.25Zm-4.51,0h-2.25v-2.25h2.25Zm-4.5,0h-2.26v-2.25h2.26Zm-4.51,0h-2.25v-2.25h2.25Zm-4.51,0H134.1v-2.25h2.25Zm-4.5,0h-2.26v-2.25h2.26Zm-4.51,0h-2.26v-2.25h2.26Zm-4.51,0h-2.25v-2.25h2.25Zm-4.51,0h-2.25v-2.25h2.25Zm-4.5,0h-2.26v-2.25h2.26Zm-4.51,0h-2.26v-2.25h2.26Zm-4.51,0h-2.25v-2.25h2.25Zm-4.51,0H98v-2.25h2.25Zm-4.5,0H93.53v-2.25h2.26Zm-4.51,0H89v-2.25h2.25Zm-4.51,0H84.52v-2.25h2.25Zm-4.5,0H80v-2.25h2.26Zm-4.51,0H75.5v-2.25h2.26Zm-4.51,0H71v-2.25h2.25Zm-4.51,0H66.49v-2.25h2.25Zm-4.5,0H62v-2.25h2.26Zm-4.51,0H57.47v-2.25h2.26Zm-4.51,0H53v-2.25h2.25Zm-4.51,0H48.46v-2.25h2.25Zm-4.5,0H44v-2.25h2.26Zm-4.51,0H39.45v-2.25H41.7Zm-4.51,0H34.94v-2.25h2.25Zm-4.51,0H30.43v-2.25h2.25Zm-4.79-.28a7.27,7.27,0,0,1-2.37-1.2l1.36-1.79a5,5,0,0,0,1.63.82Zm156.19-1.2-1.36-1.79a5.11,5.11,0,0,0,1.23-1.35l1.92,1.18A7.12,7.12,0,0,1,184.08,117.32Zm-160.35-2a7.21,7.21,0,0,1-.95-2.48l2.22-.41a4.83,4.83,0,0,0,.66,1.71Zm163.09-2.48-2.22-.41a5.29,5.29,0,0,0,.08-.9l-.2-.9,2.21-.44.22,1.12A7.4,7.4,0,0,1,186.82,112.88ZM22.46,110.67,22,108.46l2.21-.44.44,2.21ZM184,108.46l-.45-2.21,2.22-.44.44,2.21ZM21.58,106.25,21.14,104l2.21-.44.44,2.21ZM183.15,104l-.44-2.21,2.21-.44.44,2.21ZM20.69,101.83l-.44-2.21,2.21-.44.45,2.21Zm161.58-2.21-.44-2.21L184,97l.44,2.21ZM19.81,97.41l-.44-2.21,2.21-.44L22,97ZM181.39,95.2,180.94,93l2.21-.44.45,2.21ZM18.93,93l-.44-2.21,2.21-.44.44,2.21ZM180.5,90.78l-.44-2.21,2.21-.44.44,2.21ZM18,88.57l-.44-2.21,2.21-.44.44,2.21Zm161.58-2.21-.44-2.21,2.21-.44.44,2.21ZM17.16,84.15l-.44-2.21,2.21-.44.44,2.21Zm161.58-2.21-.45-2.21,2.21-.44L181,81.5ZM16.28,79.73l-.44-2.21,2.21-.44.44,2.21Zm161.57-2.21-.44-2.21,2.21-.44.44,2.21ZM15.39,75.31,15,73.1l2.21-.44.44,2.21ZM177,73.1l-.45-2.21,2.22-.44.44,2.21ZM14.51,70.89l-.44-2.21,2.21-.44.44,2.21Zm161.57-2.21-.44-2.21,2.21-.44.45,2.21ZM13.63,66.48l-.45-2.22,2.22-.44L15.84,66ZM175.2,64.26l-.44-2.21,2.21-.44.44,2.21ZM12.74,62.05l-.44-2.21,2.21-.44L15,61.61Zm-.88-4.42-.44-2.2L13.63,55l.44,2.21ZM11,53.21,10.53,51l2.21-.44.44,2.21Zm-.88-4.42-.44-2.21,2.21-.44.44,2.21Zm-.88-4.41-.44-2.21L11,41.72l.44,2.21ZM8.32,40l-.44-2.21,2.21-.44.44,2.21Zm-.88-4.42L7,33.33l2.21-.45.44,2.21Zm-.88-4.41L6.11,28.9l2.22-.44.44,2.21Zm-.89-4.43-.44-2.21L7.44,24l.44,2.21Zm-.88-4.41-.44-2.21,2.21-.45L7,21.83Zm-.88-4.42-.45-2.22,2.21-.44.45,2.21ZM3,13.43l-.44-2.2,2.21-.44L5.23,13ZM4.54,8.91,2.3,8.66a7.29,7.29,0,0,1,.78-2.54l2,1A4.84,4.84,0,0,0,4.54,8.91ZM6.21,5.74,4.73,4A7.18,7.18,0,0,1,7,2.69L7.79,4.8A5.17,5.17,0,0,0,6.21,5.74ZM29.9,4.51H27.64V2.25H29.9Zm-4.51,0H23.14V2.25h2.25Zm-4.51,0H18.63V2.25h2.25Zm-4.51,0H14.12V2.25h2.25Zm-4.5,0H9.61V2.25h2.26Z"/></g></g></svg>