<svg xmlns="http://www.w3.org/2000/svg" viewBox="0 0 186.82 121.07"><g id="Слой_2" data-name="Слой 2"><g id="Слой_1-2" data-name="Слой 1"><rect x="5.9" y="60.7" width="170.27" height="2.25" transform="translate(-18.73 53.94) rotate(-30.07)"/><polygon points="19.89 106.9 13.15 106.91 16.52 101.06 19.89 106.9"/><polygon points="165.55 22.6 168.92 16.75 162.18 16.76 165.55 22.6"/><path d="M177.34,121.07H9.48A9.5,9.5,0,0,1,0,111.58V9.48A9.49,9.49,0,0,1,9.48,0H177.34a9.49,9.49,0,0,1,9.48,9.48v102.1A9.5,9.5,0,0,1,177.34,121.07ZM9.48,6.76A2.72,2.72,0,0,0,6.76,9.48v102.1a2.72,2.72,0,0,0,2.72,2.72H177.34a2.72,2.72,0,0,0,2.72-2.72V9.48a2.72,2.72,0,0,0-2.72-2.72Z"/></g></g></svg>